<svg height="512pt" viewBox="0 0 512 512" width="512pt" xmlns="http://www.w3.org/2000/svg" xmlns:xlink="http://www.w3.org/1999/xlink"><linearGradient id="linear0" gradientTransform="matrix(.994919 0 0 -.994919 0 503.347492)" gradientUnits="userSpaceOnUse" x1="81.2359" x2="495.1311" y1="67.5541" y2="481.4492"><stop offset="0" stop-color="#a87030"/><stop offset=".0377" stop-color="#b97d2b"/><stop offset=".1302" stop-color="#dc9a20"/><stop offset=".2058" stop-color="#f2ac19"/><stop offset=".2546" stop-color="#fab217"/><stop offset=".2947" stop-color="#f9ac1e"/><stop offset=".5068" stop-color="#f3903f"/><stop offset=".744" stop-color="#f9431e"/><stop offset=".9153" stop-color="#fd1308"/><stop offset="1" stop-color="#f00"/></linearGradient><path d="m476 72h16c11.027344 0 20-8.972656 20-20s-8.972656-20-20-20h-84c-4.410156 0-8-3.589844-8-8s3.589844-8 8-8 8 3.589844 8 8h16c0-13.234375-10.765625-24-24-24s-24 10.765625-24 24 10.765625 24 24 24h84c2.207031 0 4 1.792969 4 4s-1.792969 4-4 4h-16c-11.027344 0-20 8.972656-20 20v8.6875l-11.3125 11.3125h-12.6875v-16c0-4.417969-3.582031-8-8-8h-16v-16h-16v11.492188c-3.726562-1.324219-7.566406-2.300782-11.496094-2.953126l-1.753906-1.335937c-13.023438-10.128906-27.394531-17.925781-42.691406-23.160156-12.90625-4.472657-26.347656-7.09375-40.058594-7.828125v-4.214844c0-11.027344-8.972656-20-20-20s-20 8.972656-20 20v4h-51.359375c-10.460937 0-21.121094-4.824219-31.605469-14.269531-7.164062-6.636719-19.628906-6.457031-26.6875.609375-3.628906 3.621094-5.628906 8.472656-5.628906 13.660156 0 5.179688 1.996094 10.03125 5.625 13.65625l1.359375 1.359375c11.710937 11.710937 26.738281 19.738281 42.824219 23.144531l-4.582032 4.582032c-7.175781 7.175781-7.601562 18.835937-.914062 26.617187 3.75 4.269531 9.148438 6.71875 14.808594 6.71875 5.308594 0 10.25-2.085937 13.859375-5.824219l15.144531-15.382812c9.566406-9.789063 22.246094-14.820313 35.234375-14.808594.015625 2.058594.75 4.078125 2.265625 5.59375l18.34375 18.34375h-52.6875c-3.234375 0-6.152344 1.949219-7.390625 4.9375-1.238281 2.992188-.554687 6.429688 1.734375 8.71875 7.242188 7.246094 15.332031 13.308594 23.949219 18.34375h-50.292969c-3.234375 0-6.152344 1.949219-7.390625 4.9375-1.238281 2.992188-.554687 6.429688 1.734375 8.71875 13.117188 13.117188 28.835938 22.644531 45.953125 28.3125.351563 1.359375 1.007813 2.648438 2.046875 3.6875 13.117188 13.117188 28.835938 22.644531 45.953125 28.3125.351563 1.359375 1.007813 2.648438 2.046875 3.6875l20.6875 20.6875c8.804688 8.804688 20.515625 13.65625 32.96875 13.65625 2.121094 0 4.15625-.84375 5.65625-2.34375l.121094-.121094c.5 3.578125 1.496094 7.078125 2.992187 10.464844h-.769531c-18.5 0-35.890625-7.203125-48.972656-20.285156-7.554688-7.554688-17.597656-11.714844-28.28125-11.714844h-26.746094c-3.234375 0-6.152344 1.949219-7.390625 4.9375-1.238281 2.992188-.554687 6.429688 1.734375 8.71875l7.859375 7.859375c2.691406 2.691406 1.699219 5.804687 1.328125 6.691406-.367188.890625-1.867188 3.792969-5.671875 3.792969-1.640625 0-3.183594-.636719-4.34375-1.796875l-18.488281-18.488281c-7.554688-7.554688-17.597656-11.714844-28.28125-11.714844h-26.746094c-3.234375 0-6.152344 1.949219-7.390625 4.9375-1.238281 2.992188-.554687 6.429688 1.734375 8.71875l7.859375 7.859375c2.691406 2.691406 1.699219 5.804687 1.328125 6.691406-.367188.890625-1.867188 3.792969-5.671875 3.792969-1.640625 0-3.183594-.636719-4.34375-1.796875l-27.859375-27.859375c-1.460938-1.460938-3.429688-2.300781-5.496094-2.34375l-29.441406-.597656-1.859375-1.855469 6.902344-27.605469c.597656-2.390625.058593-4.921875-1.457031-6.863281-1.515626-1.941406-3.839844-3.078125-6.304688-3.078125h-16v-16c0-3.234375-1.949219-6.152344-4.9375-7.390625-3.003906-1.246094-6.429688-.554687-8.71875 1.734375l-10.699219 10.699219c-10.914062-8.460938-24.242187-13.042969-38.273437-13.042969h-9.371094c-4.417969 0-8 3.582031-8 8v9.371094c0 14.03125 4.582031 27.359375 13.042969 38.273437l-10.699219 10.699219c-2.2890625 2.289062-2.972656 5.726562-1.734375 8.71875 1.238281 2.988281 4.15625 4.9375 7.390625 4.9375h16v16c0 2.464844 1.136719 4.789062 3.078125 6.304688 1.417969 1.109374 3.15625 1.695312 4.921875 1.695312.648438 0 1.300781-.078125 1.941406-.238281l27.605469-6.902344 1.515625 1.515625c1.535156 1.535156 2.378906 3.53125 2.378906 5.625s-.84375 4.089844-2.378906 5.625c-9.171875 9.171875-14.222656 21.378906-14.222656 34.375s5.050781 25.203125 14.222656 34.375l5.625 5.625-8 8h-1.375l-5.65625-5.65625c-1.5-1.5-3.535156-2.34375-5.65625-2.34375h-16c-2.121094 0-4.15625.84375-5.65625 2.34375l-16 16c-2.289062 2.289062-2.972656 5.726562-1.734375 8.71875 1.238281 2.988281 4.15625 4.9375 7.390625 4.9375h12.6875l35.3125 35.3125v12.6875c0 3.234375 1.949219 6.152344 4.9375 7.390625.992188.410156 2.03125.609375 3.0625.609375 2.082031 0 4.125-.8125 5.65625-2.34375l16-16c1.5-1.5 2.34375-3.535156 2.34375-5.65625v-16c0-2.121094-.84375-4.15625-2.34375-5.65625l-5.65625-5.65625v-1.375l8-8 5.46875 5.46875c15.441406 15.453125 37.597656 19.855469 57.792969 11.496094 20.195312-8.367188 32.738281-27.140625 32.714843-48.988282l37.539063 37.539063c10.269531 10.273437 23.496094 15.660156 37.140625 15.660156 6.875 0 13.859375-1.371093 20.621094-4.171875 20.183594-8.359375 32.722656-27.121094 32.746094-48.980468l18.320312 18.320312c12.1875 12.191406 28.402344 18.902344 45.65625 18.902344 10.5625 0 20.773438-2.554688 29.90625-7.335938l10.09375 10.089844v1.375l-5.65625 5.65625c-1.5 1.5-2.34375 3.535156-2.34375 5.65625v16c0 2.121094.84375 4.15625 2.34375 5.65625l16 16c1.53125 1.53125 3.574219 2.34375 5.65625 2.34375 1.03125 0 2.070312-.199219 3.0625-.609375 2.988281-1.238281 4.9375-4.152344 4.9375-7.386719v-12.6875l35.3125-35.3125h12.6875c3.234375 0 6.152344-1.949218 7.390625-4.9375 1.238281-2.992187.554687-6.433594-1.734375-8.71875l-16-16c-1.503906-1.503906-3.535156-2.347656-5.65625-2.347656h-16c-2.121094 0-4.15625.84375-5.65625 2.347656l-5.65625 5.65625h-1.375l-10.292969-10.292968c4.246094-8.515626 6.613281-18.03125 6.734375-28.066407.222656-18.335937-7-36.203125-19.816406-49.019531l-19-19c-3.101562-3.101562-3.101562-8.148438 0-11.25l18.375-18.375h1.375l8.746094 8.746094c-2.632813 4.585937-4.035156 9.8125-4.035156 15.257812 0 8.199219 3.175781 15.890625 8.945312 21.65625l16 16c1.53125 1.53125 3.574219 2.34375 5.65625 2.34375 1.03125 0 2.070312-.199218 3.0625-.609375 2.988281-1.238281 4.9375-4.15625 4.9375-7.390625v-7.039062c0-8.800782 3.429688-17.078125 9.65625-23.304688 9.25-9.25 14.34375-21.542968 14.34375-34.617187v-31.039063c0-3.234375-1.949219-6.152344-4.9375-7.390625-3.003906-1.238281-6.429688-.558593-8.71875 1.734375l-18.34375 18.339844-18.34375-18.34375c-2.429688-2.433594-6.144531-3.039062-9.234375-1.5l-12.421875 6.210938-12.421875-6.210938c-2.25-1.125-4.90625-1.125-7.15625 0l-12.421875 6.210938-12.421875-6.210938c-1.109375-.554688-2.335937-.84375-3.578125-.84375-4.257812 0-8.277344-1.667969-11.300781-4.695312-3.03125-3.027344-4.695313-7.042969-4.695313-11.304688 0-8.824219 7.171875-16 16-16h8v8c0 2.773438 1.4375 5.347656 3.792969 6.804688 2.359375 1.457031 5.308594 1.585937 7.785156.351562l12.421875-6.210938 12.417969 6.210938c2.253906 1.125 4.90625 1.125 7.160156 0l12.417969-6.210938 12.421875 6.210938c3.097656 1.546875 6.804687.933594 9.234375-1.5l9.101562-9.097656 10.585938 15.878906c1.957031 2.933594 5.601562 4.242188 8.972656 3.21875 3.375-1.019531 5.683594-4.132812 5.683594-7.65625v-56c0-4.417969-3.578125-8-8-8h-16v-4c0-2.207031 1.792969-4 4-4zm-60 24h-8v-8h8zm-101.394531-4.53125c-.925781 1.351562-1.78125 2.699219-2.574219 4.058594-4.261719-.882813-8.179688-2.988282-11.335938-6.144532l-9.382812-9.382812h33.644531c-1.214843 1.035156-2.417969 2.148438-3.574219 3.304688-2.566406 2.5625-4.855468 5.324218-6.777343 8.164062zm-97.183594-15.800781-15.175781 15.414062c-1.714844 1.78125-3.503906 1.640625-5.140625-.21875-1.1875-1.378906-1.117188-3.539062.152343-4.808593l16.398438-16.398438c2.289062-2.289062 2.972656-5.726562 1.734375-8.71875-1.238281-2.988281-4.15625-4.9375-7.390625-4.9375-18.230469 0-36.085938-7.398438-48.984375-20.296875l-1.359375-1.359375c-.621094-.625-.9375-1.410156-.9375-2.34375s.3125-1.71875.9375-2.34375c.625-.621094 1.410156-.9375 2.34375-.9375.898438 0 1.625.253906 2.246094.828125 13.59375 12.242187 27.859375 18.453125 42.394531 18.453125h59.359375c4.417969 0 8-3.582031 8-8v-12c0-2.207031 1.792969-4 4-4s4 1.792969 4 4v12c0 4.417969 3.582031 8 8 8 14.695312 0 29.101562 2.410156 42.851562 7.171875 6.90625 2.363281 13.601563 5.3125 20.042969 8.828125h-55.222656c-26.28125-14.0625-57.675781-9.390625-78.25 11.667969zm88.082031 36.332031c-.023437.09375-.027344.1875-.050781.28125-.320313 1.4375-.53125 2.898438-.746094 4.359375-.101562.6875-.257812 1.363281-.335937 2.058594-.242188 2.15625-.371094 4.328125-.371094 6.5v2.667969c-17.78125-.90625-34.714844-6.382813-49.433594-15.867188zm-1.503906 32v1.359375c0 2.402344.152344 4.773437.414062 7.117187.082032.738282.246094 1.453126.355469 2.183594.238281 1.601563.488281 3.199219.851563 4.765625.042968.1875.054687.386719.101562.574219h-28.441406c-19.703125 0-38.542969-5.582031-54.714844-16zm-26.71875 32h34.742188c.019531.03125.042968.058594.058593.089844 1.226563 2.199218 2.621094 4.289062 4.113281 6.320312.363282.5.738282.988282 1.121094 1.480469 1.5625 2 3.207032 3.945313 5.027344 5.765625.804688.804688 1.628906 1.585938 2.476562 2.34375-19.539062-.085938-38.210937-5.664062-54.253906-16zm63.5625 47.839844c-6.988281-.710938-13.464844-3.773438-18.5-8.808594l-7.03125-7.03125h41.375zm-216.222656 8.09375 25.582031 25.582031c4.179687 4.183594 9.742187 6.484375 15.65625 6.484375 9.125 0 16.960937-5.238281 20.453125-13.667969 2.546875-6.144531 2.261719-12.71875-.578125-18.332031h9.011719c6.316406 0 12.5 2.5625 16.96875 7.027344l18.488281 18.488281c4.179687 4.183594 9.742187 6.484375 15.65625 6.484375 9.125 0 16.960937-5.238281 20.453125-13.667969 2.546875-6.144531 2.261719-12.71875-.578125-18.332031h9.011719c6.320312 0 12.5 2.5625 16.96875 7.027344 16.101562 16.105468 37.511718 24.972656 60.285156 24.972656h12.6875l29.65625 29.65625c2.71875 2.71875 4.214844 6.390625 4.214844 10.34375 0 5.039062-2.507813 9.65625-6.710938 12.34375-2.25 1.441406-4.855468 2.105469-7.511718 2.085938-4.09375-.03125-8.308594-1.71875-11.539063-4.945313l-32.484375-32.488281c-1.457031-1.457032-2.996094-2.785156-4.601562-3.984375-11.222657-8.363281-25.679688-10.21875-39.011719-4.695313-15.234375 6.308594-24.699219 20.472656-24.699219 36.964844v12.089844c0 4.960937-3.78125 6.914062-4.9375 7.394531-1.164062.472656-5.210938 1.761719-8.71875-1.734375l-46.046875-46.046875c-1.746094-1.746094-3.636719-3.242187-5.589844-4.613281-.582031-.40625-1.183593-.757813-1.78125-1.132813-1.476562-.925781-2.988281-1.742187-4.546875-2.457031-.636718-.289062-1.253906-.589844-1.902344-.847656-2.085937-.824219-4.214843-1.507813-6.402343-1.960938-.070313-.011718-.132813-.042968-.203125-.054687-2.25-.449219-4.542969-.632813-6.855469-.679688-.253906-.003906-.496094-.074219-.75-.074219-.433594 0-.867187.117188-1.300781.132813-1.730469.054687-3.457032.230469-5.195313.515625-.703125.117188-1.398437.21875-2.101562.371094-2.339844.519531-4.671875 1.179687-6.964844 2.128906-15.234375 6.308594-24.699219 20.472656-24.699219 36.964844v12.09375c0 4.960937-3.78125 6.914062-4.9375 7.394531-1.164062.472656-5.210937 1.761719-8.71875-1.734375l-19.328125-19.328125c-3.128906-3.132813-4.855469-7.289063-4.855469-11.703125 0-4.351562 1.683594-8.46875 4.738282-11.585938 1.863281-1.898437 3.476562-3.953124 4.894531-6.097656.476563-.722656.808594-1.503906 1.238281-2.25.839844-1.46875 1.675782-2.929687 2.320313-4.46875.386719-.925781.636719-1.882812.953125-2.832031.476562-1.425781.949218-2.839844 1.265625-4.300781.222656-1.027344.328125-2.058594.472656-3.097656.191406-1.417969.367187-2.828126.410156-4.257813.03125-1.066406-.019531-2.117187-.070312-3.183594-.066407-1.40625-.175781-2.796875-.390625-4.1875-.160156-1.0625-.378906-2.101562-.625-3.148437-.320313-1.371094-.710938-2.707032-1.179688-4.039063-.355468-1.023437-.742187-2.019531-1.183594-3.015625-.578124-1.300781-1.253906-2.546875-1.976562-3.792968-.550781-.941407-1.09375-1.871094-1.726562-2.773438-.28125-.402344-.472657-.84375-.773438-1.234375zm-92.621094-15.933594h-4.6875l2.34375-2.34375c3.125-3.125 3.125-8.1875 0-11.3125-8.804688-8.808594-13.65625-20.515625-13.65625-32.972656v-1.371094h1.371094c12.457031 0 24.164062 4.851562 32.972656 13.65625 3.125 3.125 8.1875 3.125 11.3125 0l2.34375-2.34375v4.6875c0 4.417969 3.582031 8 8 8h13.753906l-4 16h-17.753906c-4.417969 0-8 3.582031-8 8v17.753906l-16 4v-13.753906c0-4.417969-3.582031-8-8-8zm42.34375 165.65625 5.65625 5.65625v9.375l-.507812.507812c-.398438-1.0625-1.019532-2.035156-1.835938-2.851562l-40-40c-.816406-.816406-1.789062-1.4375-2.851562-1.835938l.507812-.507812h9.375l5.65625 5.65625c1.5 1.5 3.535156 2.34375 5.65625 2.34375h8c2.121094 0 4.15625-.84375 5.65625-2.34375l10.34375-10.34375 4.6875 4.6875-10.34375 10.34375c-1.5 1.5-2.34375 3.535156-2.34375 5.65625v8c0 2.121094.84375 4.15625 2.34375 5.65625zm373.65625-21.65625h8c2.121094 0 4.15625-.84375 5.65625-2.34375l5.65625-5.65625h9.375l.507812.507812c-1.0625.398438-2.035156 1.019532-2.851562 1.835938l-40 40c-.816406.816406-1.4375 1.789062-1.835938 2.851562l-.507812-.507812v-9.375l5.65625-5.65625c1.5-1.5 2.34375-3.535156 2.34375-5.65625v-8c0-2.121094-.84375-4.15625-2.34375-5.65625l-10.34375-10.34375 4.6875-4.6875 10.34375 10.34375c1.5 1.5 3.535156 2.34375 5.65625 2.34375zm-50.375-111.0625 19 19c9.785156 9.789062 15.300781 23.460938 15.128906 37.511719-.15625 13.136719-5.226562 25.117187-14.269531 33.730469-.003906 0-.003906 0-.003906 0-9.054688 8.628906-20.945313 13.378906-33.480469 13.378906-12.980469 0-25.175781-5.046875-34.34375-14.214844l-18.320312-18.320312c-4.597657-4.601563-11.449219-5.964844-17.449219-3.472657-6.007813 2.488281-9.886719 8.296875-9.886719 14.796875 0 18.230469-11.800781 29.613282-22.84375 34.1875-11.035156 4.578125-27.433594 4.875-40.328125-8.019531l-37.539063-37.539063c-3.066406-3.066406-7.136718-4.691406-11.289062-4.691406-2.058594 0-4.140625.402344-6.132812 1.226563-5.992188 2.480469-9.867188 8.28125-9.867188 14.769531 0 18.242188-11.808594 29.636719-22.863281 34.210938-11.058594 4.585937-27.453125 4.871093-40.355469-8.023438l-38.40625-38.40625c-6.148438-6.152344-9.535156-14.339844-9.535156-23.0625s3.386718-16.910156 9.535156-23.0625c4.558594-4.554688 7.066406-10.570312 7.066406-16.9375s-2.507812-12.382812-7.066406-16.9375l-2.375-2.375v-12.6875h12.6875l15.015625 15.015625c9.269531 9.273437 9.167969 24.613281-.230469 34.199219-6.003906 6.128906-9.3125 14.222656-9.3125 22.789062 0 8.6875 3.390625 16.859375 9.542969 23.015625l19.328125 19.328125c6.988281 6.992188 17 8.988282 26.152344 5.203125 9.140625-3.785156 14.816406-12.28125 14.816406-22.175781v-12.097656c0-11.828125 7.65625-19.210938 14.820312-22.179688 7.160157-2.96875 17.796876-3.160156 26.164063 5.203125l46.046875 46.046875c1.046875 1.050782 2.183594 1.949219 3.355469 2.769532.347656.242187.703125.453124 1.054687.675781.894532.554687 1.808594 1.050781 2.75 1.480469.375.171874.738282.347656 1.121094.5 1.273438.503906 2.574219.925781 3.910156 1.195312.015625.003906.035156.011719.050782.015625 1.355468.269531 2.742187.382813 4.132812.410156.148438 0 .292969.042969.441406.042969.253906 0 .511719-.070312.769532-.078125 1.042968-.03125 2.082031-.136719 3.128906-.3125.421875-.070313.839844-.128906 1.257812-.222656 1.40625-.308594 2.804688-.703125 4.179688-1.273438 9.140625-3.785156 14.816406-12.28125 14.816406-22.175781v-12.089844c0-11.828125 7.65625-19.207031 14.820312-22.175781 6.277344-2.601563 15.203126-3.074219 22.941407 2.449219 1.105469.789062 2.183593 1.699218 3.226562 2.746094l32.496094 32.496093.03125.027344c9.25 9.257813 22.953125 12.019531 34.273437 7.417969 1.617188-.65625 3.183594-1.464844 4.683594-2.421875 8.820313-5.644531 14.085938-15.296875 14.085938-25.820313 0-8.230468-3.160156-15.917968-8.902344-21.65625l-33.359375-33.359375c-1.445313-1.445312-2.699219-3.101562-3.78125-5.007812-5.453125-9.371094-3.898437-21.28125 3.78125-28.960938l7.015625-7.015625h25.375l-7.0625 7.0625c-9.339844 9.335938-9.339844 24.53125 0 33.871094zm82.375-131.359375-1.34375-2.015625c-1.328125-1.996094-3.484375-3.289062-5.867188-3.523438-2.40625-.21875-4.75.613282-6.445312 2.304688l-11.921875 11.921875-10.84375-5.421875c-2.25-1.125-4.90625-1.125-7.15625 0l-12.421875 6.210938-12.421875-6.210938c-2.25-1.125-4.90625-1.125-7.15625 0l-4.421875 2.210938v-3.054688c0-4.417969-3.582031-8-8-8h-16c-17.644531 0-32 14.355469-32 32 0 8.535156 3.332031 16.566406 9.382812 22.617188 5.570313 5.574218 12.824219 8.839843 20.605469 9.320312l14.433594 7.21875c2.25 1.125 4.90625 1.125 7.15625 0l12.421875-6.210938 12.421875 6.210938c2.25 1.125 4.90625 1.125 7.15625 0l10.84375-5.421875 19.921875 19.921875c3.125 3.125 8.1875 3.125 11.3125 0l10.34375-10.34375v11.726562c0 8.800782-3.429688 17.078126-9.65625 23.304688-6.589844 6.589844-11.070312 14.722656-13.101562 23.585938l-3.585938-3.585938c-2.746094-2.746094-4.257812-6.417969-4.257812-10.34375s1.511718-7.597656 4.257812-10.34375c1.5-1.5 2.34375-3.535156 2.34375-5.65625s-.84375-4.15625-2.34375-5.65625l-16-16c-1.5-1.5-3.535156-2.34375-5.65625-2.34375h-65.359375c-1.945313 0-3.886719-.144531-5.640625-.339844-10.347656-1.300781-20.058594-6.035156-27.34375-13.316406-3.980469-3.980469-7.140625-8.558594-9.445312-13.722656-2.792969-6-4.210938-12.476563-4.210938-19.261719v-20.160156c0-1.636719.109375-3.269531.296875-4.890625.519531-4.5 1.730469-8.910156 3.617187-12.980469 1.066407-2.324219 2.332032-4.546875 3.910157-6.84375 1.363281-2.015625 3.050781-4.046875 4.871093-5.867187 1.21875-1.214844 2.5-2.363282 3.914063-3.484376 1.148437-.949218 2.300781-1.828124 3.515625-2.640624.074219-.050782.234375-.171876.386719-.28125.324219-.171876.640625-.367188.9375-.578126.832031-.59375 1.664062-1.058593 2.792969-1.664062 1.746093-1.007812 3.558593-1.878906 5.441406-2.644531 2.726562-1.050781 5.175781-1.816407 7.785156-2.386719.421875-.109375.859375-.191406 1.292969-.277344.570312-.125 1.144531-.25 1.71875-.316406.363281-.0625.699219-.121094 1.101562-.183594.855469-.171875 1.707031-.28125 3.144531-.398437 3.949219-.5625 8.003907-.242188 11.351563.238281.132813.015625.277344.027344.425781.046875 5.410156.746094 10.597656 2.359375 15.496094 4.75v19.203125c0 4.417969 3.582031 8 8.003906 8h48c2.121094 0 4.15625-.84375 5.65625-2.34375l13.65625-13.65625h12.6875v21.578125zm-104 315.433594v-17.011719c0-13.234375-10.765625-24-24-24h-32c-10.429688 0-19.328125 6.6875-22.628906 16h-97.371094c-14.882812 0-27.425781 10.214844-30.988281 24h-65.011719c-3.597656 0-6.75 2.398438-7.710938 5.863281-.957031 3.464844.511719 7.148438 3.59375 8.996094l36.46875 21.878906c2.296876 15.40625 15.613282 27.261719 31.648438 27.261719h65.371094c3.300781 9.3125 12.199218 16 22.628906 16h88c10.429688 0 19.328125-6.6875 22.628906-16h1.371094c17.644531 0 31.996094-14.355469 31.996094-32 .003906-14.882812-10.210938-27.425781-23.996094-30.988281zm-8 46.988281h-1.476562c-3.3125-9.292969-12.109376-16-22.523438-16v16c4.410156 0 8 3.589844 8 8s-3.589844 8-8 8h-88c-4.410156 0-8-3.589844-8-8v-16c0-4.410156 3.589844-8 8-8s8 3.589844 8 8h16c0-13.234375-10.765625-24-24-24s-24 10.765625-24 24v8h-64c-8.824219 0-16-7.175781-16-16 0-2.808594-1.472656-5.414062-3.882812-6.859375l-15.234376-9.140625h36.589844c3.3125 9.292969 12.109375 16 22.527344 16 13.234375 0 24-10.765625 24-24h-16c0 4.410156-3.589844 8-8 8s-8-3.589844-8-8c0-8.824219 7.171875-16 16-16h96v8c0 13.234375 10.765625 24 24 24s24-10.765625 24-24h-16c0 4.410156-3.589844 8-8 8s-8-3.589844-8-8v-16c0-4.410156 3.589844-8 8-8h32c4.410156 0 8 3.589844 8 8v24c0 4.417969 3.578125 8 8 8 8.824219 0 16 7.175781 16 16s-7.175781 16-16 16zm0 0" fill="url(#linear0)"/></svg>