<svg id="Capa_1" enable-background="new 0 0 512.003 512.003" height="512" viewBox="0 0 512.003 512.003" width="512" xmlns="http://www.w3.org/2000/svg"><g><path d="m511.924 313.484c-.781-7.749-7.371-13.481-14.923-13.481-.013 0-.026.001-.039.001-.046 0-.091.003-.136.004-35.27.1-53.544 30.023-71.215 58.967-17.207 28.183-33.591 54.996-64.61 61.517v-41.473s50.025-86.735 50.03-86.744c6.522-11.32 9.97-24.207 9.97-37.271 0-14.397-4.137-28.315-11.839-40.328 26.007-29.174 41.839-67.606 41.839-109.672v-90c0-8.284-6.716-15-15-15s-15 6.716-15 15v30c0 32.072-11.249 61.562-30 84.749v-24.749c0-46.479-29.501-90.298-70.148-104.193-7.293-2.494-15.29.947-18.494 7.958-3.205 7.01-.574 15.309 6.084 19.192 12.228 7.133 22.558 28.676 22.558 47.043 0 24.813-20.187 45-45 45-11.515 0-22.033 4.347-30 11.486-7.967-7.139-18.485-11.486-30-11.486-24.813 0-45-20.187-45-45 0-18.367 10.331-39.911 22.558-47.043 6.658-3.884 9.289-12.182 6.084-19.192-3.204-7.011-11.201-10.451-18.494-7.958-40.646 13.895-70.148 57.715-70.148 104.193v24.749c-18.751-23.186-30-52.676-30-84.749v-30c0-8.284-6.716-15-15-15s-15 6.716-15 15v90c0 42.066 15.832 80.498 41.839 109.672-7.702 12.013-11.839 25.931-11.839 40.328 0 13.075 3.453 25.972 9.985 37.298l50.015 86.717v41.473c-31.018-6.521-47.403-33.334-64.61-61.517-17.664-28.933-35.932-58.843-71.175-58.966-7.935-.121-14.383 5.978-15.139 13.475-.334 3.257.4 6.653 2.314 9.624.046.071.082.145.128.215 15.994 23.991 22.897 48.333 29.572 71.872 8.866 31.263 17.24 60.791 45.126 82.86 29.266 23.16 76.542 33.947 148.783 33.947h60c72.24 0 119.517-10.787 148.783-33.947 27.886-22.069 36.26-51.598 45.126-82.86 6.675-23.54 13.578-47.881 29.572-71.872.047-.07.083-.145.128-.215 1.918-2.976 2.651-6.354 2.315-9.624zm-98.57-163.694c-16.916 47.96-60.197 83.582-112.353 89.375v-29.838c44.253-4.004 84.5-25.745 112.353-59.537zm-112.353 119.524c9.978-.904 19.702-2.695 29.093-5.303-3.172 15.549-14.386 28.207-29.093 33.421zm-90-59.987v29.838c-52.156-5.792-95.437-41.414-112.353-89.375 27.815 33.745 68.04 55.527 112.353 59.537zm0 59.987v28.119c-14.707-5.214-25.921-17.873-29.093-33.421 9.391 2.607 19.115 4.398 29.093 5.302zm-84.027 7.999c-3.907-6.775-5.973-14.489-5.973-22.31 0-6.733 1.534-13.299 4.415-19.299 7.985 6.16 16.541 11.613 25.585 16.248v3.052c0 41.355 33.645 75 75 75 8.284 0 15-6.716 15-15 0-14.518 0-105.386 0-120 0-8.284-6.716-15-15-15-27.732 0-53.534-8.409-75-22.806v-52.194c0-5.13.503-10.241 1.457-15.25 6.872 34.315 37.236 60.25 73.543 60.25 8.271 0 15 6.729 15 15 0 8.284 6.716 15 15 15s15-6.716 15-15c0-8.271 6.729-15 15-15 36.307 0 66.671-25.935 73.543-60.25.954 5.009 1.457 10.12 1.457 15.25v52.194c-21.466 14.396-47.268 22.806-75 22.806-8.284 0-15 6.716-15 15v120c0 8.284 6.716 15 15 15 41.355 0 75-33.645 75-75v-3.052c9.044-4.635 17.6-10.088 25.585-16.248 2.882 6 4.415 12.566 4.415 19.299 0 7.821-2.065 15.535-5.973 22.31l-52.021 90.196c-1.314 2.279-2.006 4.863-2.006 7.494v55.787l-51.213 51.213h-47.573l-51.213-51.213v-55.787c0-2.631-.692-5.215-2.006-7.494zm-66.019 109.698c-2.123-7.486-4.335-15.278-6.907-23.282 2.16 3.411 4.393 7.038 6.738 10.878 20.261 33.186 45.295 74.173 98.815 77.209l29.092 29.092c-102.953-6.566-113.119-42.346-127.738-93.897zm262.353 93.898 29.092-29.092c53.521-3.036 78.555-44.023 98.815-77.209 2.345-3.841 4.579-7.467 6.738-10.878-2.572 8.004-4.784 15.795-6.907 23.282-14.618 51.55-24.784 87.33-127.738 93.897z"/><path d="m245.395 447.609c2.929 2.929 6.768 4.394 10.606 4.394s7.678-1.464 10.606-4.394l30-30c5.858-5.858 5.858-15.355 0-21.213-5.857-5.858-15.355-5.858-21.213 0l-19.394 19.393-19.394-19.393c-5.857-5.858-15.355-5.858-21.213 0s-5.858 15.355 0 21.213z"/></g></svg>